<?xml version="1.0" encoding="UTF-8" standalone="no"?>
<svg
   width="67.193mm"
   height="67.76mm"
   version="1.1"
   viewBox="0 0 238.08506 240.09541"
   id="svg5"
   sodipodi:docname="alien-1295484.svg"
   inkscape:version="1.4.2 (ebf0e940d0, 2025-05-08)"
   xmlns:inkscape="http://www.inkscape.org/namespaces/inkscape"
   xmlns:sodipodi="http://sodipodi.sourceforge.net/DTD/sodipodi-0.dtd"
   xmlns="http://www.w3.org/2000/svg"
   xmlns:svg="http://www.w3.org/2000/svg">
  <defs
     id="defs5" />
  <sodipodi:namedview
     id="namedview5"
     pagecolor="#ffffff"
     bordercolor="#000000"
     borderopacity="0.25"
     inkscape:showpageshadow="2"
     inkscape:pageopacity="0.0"
     inkscape:pagecheckerboard="true"
     inkscape:deskcolor="#d1d1d1"
     inkscape:document-units="mm"
     inkscape:zoom="3.484831"
     inkscape:cx="126.9789"
     inkscape:cy="128.12673"
     inkscape:window-width="1920"
     inkscape:window-height="1200"
     inkscape:window-x="0"
     inkscape:window-y="0"
     inkscape:window-maximized="1"
     inkscape:current-layer="g5" />
  <g
     transform="translate(-395.24 -540.89)"
     id="g5">
    <path
       style="fill:#ffffff;stroke-width:0.573916;stroke-linecap:round;stroke-linejoin:round;paint-order:markers stroke fill"
       d="m 114.17956,80.61333 c -5.20692,0.991129 -9.96554,3.686564 -14.340606,6.59611 -6.488245,4.558546 -11.467507,10.852375 -16.759007,16.67574 -3.484105,3.93824 -6.845987,8.05219 -8.98742,12.90141 -3.159835,6.2231 -5.434406,13.10041 -4.953763,20.16457 -0.04267,5.49397 1.37126,10.99449 4.467324,15.57309 2.719531,4.21093 6.133387,8.3427 10.999433,10.08676 8.096715,3.32173 16.881029,5.40802 25.674329,4.48988 7.312,-0.69211 14.46223,-2.99122 20.99445,-6.31251 9.40457,-4.83078 16.37818,-13.63593 19.7272,-23.58635 2.28685,-6.83833 4.44118,-14.02187 3.87509,-21.3108 -0.31148,-3.4602 -2.44398,-6.25792 -4.35113,-9.00214 -3.37215,-5.81254 -6.77941,-12.142414 -12.6713,-15.728373 -1.54767,-1.446621 -3.01112,-3.021621 -4.84113,-4.168379 -4.54528,-3.438269 -10.17765,-4.896192 -15.67891,-5.84354 -1.03739,-0.240068 -2.07595,-0.587355 -3.15456,-0.535468 z m 2.5787,25.66817 c 2.22356,-0.0993 4.3757,0.60633 6.16063,1.90838 3.20394,1.07366 5.98672,3.2753 7.58141,6.229 2.14152,3.86527 3.41221,8.3347 3.25854,12.77019 -1.36479,6.463 -4.00767,13.22849 -9.54079,17.24606 -3.82489,2.21877 -7.70567,4.51949 -11.92669,5.88881 -4.65757,0.50428 -9.46035,0.0288 -13.947115,-1.27022 -3.90045,-1.15097 -7.326825,-4.33345 -7.836602,-8.50553 -1.678314,-6.51614 1.667874,-12.87352 4.775734,-18.39454 2.172744,-3.88399 4.351128,-8.06697 8.274643,-10.44782 3.88103,-2.93043 8.24384,-5.56948 13.20024,-5.42433 z"
       id="path6"
       transform="matrix(0.93750355,0,0,0.93750355,395.23936,540.89)" />
    <path
       d="m395.24 755.8c0.10928-4.2495 4.3141-8.3369 6.4688-10.373 2.8517-4.5028 6.4032-9.4014 11.937-11.124 3.9124-2.2033 8.1296-1.9639 11.714-3.6724-2.758-7.0457-7.3226-13.63-6.7896-21.654-0.9065-15.851-2.2538-32.61 3.508-47.73 2.6861-7.7172 6.3388-15.605 11.057-22.466 3.97-8.3156 9.7048-15.225 16.682-21.169 5.0242-4.9955 10.007-9.0453 15.276-13.613 5.7576-4.3771 12.424-8.3052 19.972-9.577 3.9902-0.0804 2.3668-3.3721 0.57979-5.7625-2.2418-5.5638-7.0537-11.497-3.9932-17.642 1.5999-3.1738 6.2605-5.4715 8.8603-2.1036 4.5357 7.3578 3.4871-1.0734 4.7542-5.4226 1.6558-6.8462 2.3326-13.705 7.1792-18.822 1.5311-1.5933 2.3014-2.3045 3.781-2.997 2.73-1.3658 6.1401-1.049 7.8531 1.8039 3.3376 7.5665-0.34681 17.413 0.75921 24.259 2.8173-2.9522 7.794-6.0644 12.086-3.9929 3.9909 2.8923 1.9233 8.9912-0.87902 11.922-1.9058 3.9548-5.2454 7.0204-6.4076 11.358-3.3626 4.6587 2.4215 2.8777 4.7851 3.2788 2.9914-0.71516 1.5041 4.1591 4.5872 3.9428 2.8857 1.5698 5.1069 2.5697 8.3245 4.381 5.8366 5.1924 13.354 7.452 19.259 12.37 8.7907 2.5403 14.763 10.434 21.911 15.775 5.1217 4.1092 7.3319 10.578 12.094 14.978 9.3918 16.19 17.413 34.531 15.313 53.736-1.1788 8.6031-5.0601 16.618-8.5903 24.434-3.7616 5.3233-6.0627 11.692-10.573 16.748-2.3714 3.0732 2.9657 0.41225 4.3426 0.097 9.2984-2.1588 19.094-2.3196 28.106 0.90368 8.4744 2.6018 15.986 11.305 13.721 20.594-0.63863 11.075-11.119 18.699-21.417 20.383-7.9277 2.0922-16.804 3.3145-24.716 1.3572-7.31-0.0308-13.767-4.1125-20.766-5.6203-4.441-1.5441-8.7408-3.2287-12.128-6.6646-3.0464-2.182-3.5728-7.8587-8.2681-5.5538-8.1603 0.76922-15.491 5.0484-23.722 5.4457-6.1602 0.53226-12.085 1.218-18.37 1.3161-7.34-2.0962-15.015-0.91632-22.049-3.8886-2.2385 0.19856-5.928-3.1313-6.7268-0.83271-4.6887 4.1139-11.385 5.2305-16.779 7.9816-9.1531 4.7542-20.377 4.7696-30.625 4.56-2.8304-0.27219-4.862-0.19196-6.758-0.88394-6.0291-2.0483-12.393-3.5468-18.102-6.4845-4.0719-3.2702-6.9663-8.3264-7.2485-13.573zm2.9574 0.70844c-0.11404 5.8408 4.0274 11.121 9.767 12.275 6.0748 2.0853 11.728 4.8313 17.64 4.7012 7.8902 0.72154 16.391 0.48996 24.105-1.7195 4.4723-0.76486 7.9507-3.5035 12.701-4.9193 3.0211-1.6649 7.3453-1.9891 9.231-5.1071-5.6897-2.7527-11.77-3.6616-17.046-7.0335-6.4146-2.4504-12.474-6.0712-17.163-11.334-3.5041-2.5451-8.1071-4.5453-9.8361-9.1744-3.6102 0.406-7.8258 1.872-11.701 2.8962-7.7158 2.5993-11.047 10.249-16.219 15.77-0.90514 1.1062-1.4544 2.1435-1.4778 3.6456zm2.3261-4.6862c0.43859-0.15888-6e-3 0.3803 0 0zm20.818 21.265c0.43256 0.16291-0.31146 0.26691 0 0zm-7.7689 0.42951c0.31411-0.10404-0.30613-0.21177 0 0zm7.1942-91.191c0.63732 14.656-1.9323 30.656 5.8652 43.86 2.7049 5.1748 5.4925 11.328 10.56 13.6 5.0943 3.9059 9.3284 9.3015 15.812 11.068 4.3892 1.9321 8.2437 4.3502 12.325 5.2271 6.1174 1.8833 11.425 4.8146 17.234 6.0944 4.9114 1.8922 11.261 2.4403 16.545 2.7504 4.987 1.2232 9.8352 1.2996 14.648 0.19742 8.5107-0.11905 16.905-2.1861 24.866-5.0269 5.2911-1.3096 11.248-1.3135 15.843-4.047 5.3362-2.5885 9.5288-4.2864 14.388-7.8112 9.6762-6.1834 17.682-15.192 22.37-25.576 4.8377-6.6935 7.4464-14.721 10.174-22.398 3.5639-15.69-0.44187-32.233-7.6909-46.283-3.2692-6.4547-6.6665-12.805-11.532-18.233-4.2139-7.1698-11.618-11.569-17.686-17.025-4.8219-3.8825-10.944-5.7388-15.659-9.586-4.9138-2.1569-9.3523-5.3076-13.705-8.4631-3.285-1.3552-6.4733-4.1732-9.9796-4.2685-0.33162 0.79558-3.2654-2.4302-5.5847-2.4338-4.7384-1.3402-9.0886-0.21501-13.987-0.4459-3.7485 0.46412-8.7171 0.80358-12.388 1.6474-6.8609 1.4227-14.438 2.8871-20.676 7.1899-5.0629 3.1537-9.1651 6.6144-13.355 10.783-4.1349 3.3117-8.8958 7.9227-12.96 11.939-6.3368 6.2992-10.024 14.735-14.711 21.898-3.777 7.1408-6.5262 14.491-8.7393 22.174-1.1029 4.2979-1.4985 8.668-1.9767 13.168zm11.419-36.56c0.12263 0.37654-0.16501 0.0373 0 0zm2.0086-3.2087c0.25671 0.20186-0.37807 0.20982 0 0zm10.624 49.589c2.9478-2.15 5.4615 3.09 7.3895 4.7969 3.6205 4.0293 7.044 8.5482 10.758 12.431 4.3447 3.2182 8.4811 8.423 13.824 9.0288 7.136 1.8362 15.793 3.649 23.582 3.6322 6.0926 0.20332 11.008-0.86938 16.762-1.7622 6.6284-0.71349 12.609-4.2694 19.112-5.609 4.5016-1.7225 8.8266-3.3986 13.029-5.8822 2.0518-0.54491 5.8058-3.2666 8.4885-2.203 1.3467 3.4353-4.1523 2.9031-6.0196 4.5485-4.9097 2.4737-10.01 4.7959-15.233 6.4284 0.17844 2.4516-1.3136 4.1774-2.8439 6.3101-2.114 3.7238-3.8321 7.89-6.2056 11.249-4.051-1.119-5.1649-6.53-7.8012-9.6727-2.0429-4.0387-5.9995-1.0844-9.2546-1.2569-10.957 1.5633-21.719-0.20307-32.349-2.6444-3.501-0.58647-8.0547-2.1611-10.77-4.0739-3.1246 3.6178-6.361 7.0129-7.7524 11.667-6.6645-0.95518-2.6953-14.932-3.2788-20.688 0.0104-5.0036-6.3824-7.8047-8.6215-12.147-0.69375-1.4925-3.4725-2.1516-2.8128-4.1526zm14.092 24.246c-0.46227 6.2247 1.0906 6.4066 3.5893 2.1192 3.0839-2.1311 2.3268-4.982-0.90902-6.9356-4.0073-3.7328-1.6578 2.588-2.6803 4.8164zm26.405 4.0101c-0.037-0.16544-0.37649 0.12321 0 0zm36.071 2.569c1.7168 1.6644 4.4895 10.43 6.6135 5.0647 1.2677-3.1652 3.5206-5.7962 4.1516-9.0958-3.5754 0.94748-7.2046 2.8176-11.002 3.5428l0.23675 0.48807 3.9e-4 2e-4zm11.003-7.1218c-0.037-0.16546-0.37643 0.12331 0 0zm-80.5-96.182c0.16421 0.2474-0.29513 0.20043 0 0zm6.0678 48.761c-0.35421-10.185 4.2951-19.599 9.9632-27.707 2.2811-2.9912 6.0655-7.0888 8.3177-9.714 4.2264-4.2054 7.9793-7.875 13.01-11.254 3.8185-2.3839 7.7754-4.2237 12.415-5.2421 1.6563-0.32479 4.9436 0.64743 7.199 0.78691 5.0423 1.3686 11.042 3.334 15.004 7.4618 6.4282 4.4443 11.87 11.366 15.274 18.779 6.7775 7.0485 3.6767 17.812 1.0321 25.911-1.5678 5.303-3.6517 11.222-6.8969 15.185-2.9711 3.5361-6.8687 7.7868-11.658 9.7872-3.6242 1.868-6.6015 4.4528-10.952 5.1238-4.205 1.0693-10.003 2.675-14.733 2.4431-5.6419-0.0445-11.113-0.79503-16.42-2.7441-4.0081-1.069-9.8545-3.0665-12.661-6.9575-3.2576-4.9593-7.9598-9.1708-8.3032-15.6-0.27565-2.0775-0.72577-4.1509-0.58993-6.2587zm2.6142 1.9804c0.18285 6.1651 2.3552 12.022 6.608 16.445 2.8994 4.7989 7.6255 6.2518 12.666 7.8032 6.2463 2.3307 12.853 2.833 19.366 2.4398 5.936-0.83218 11.561-2.5347 16.985-4.8773 5.3229-2.8554 10.336-6.0511 13.944-11.219 4.6069-5.549 6.7542-12.676 8.6072-19.624 1.3254-6.2387 2.9399-13.683-2.128-18.676-3.3374-5.9045-6.6741-12.754-12.75-16.06-4-4.739-10.188-7.6695-16.185-8.6558-2.2932-0.0714-4.7326-1.6475-6.8079-0.74099-7.4594 2.3464-14.412 6.8392-19.671 12.905-4.2214 4.3279-8.4501 9.2869-12.514 14.069-4.2374 7.2777-8.5031 14.908-8.1442 23.836l-0.0279 0.78972 0.0526 1.5672v-2.2e-4zm18.511-0.94336c0.0617-7.4497 4.8692-13.711 8.2791-20.004 2.9527-3.6628 6.845-5.8706 11.016-8.4108 4.1266-1.2158 8.849-2.1532 12.363 0.97105 7.1538 1.5096 10.391 10.882 10.552 17.762-1.4487 7.3406-4.5747 14.708-11.374 18.374-4.4922 1.7984-8.8714 5.6603-14.28 4.2936-6.1236-0.21653-13.072-1.2733-15.689-7.7529-0.24272-1.7555-0.92726-3.428-0.867-5.2326zm8.6249-11.908c2.6282 2.4462 7.2827 2.1646 10.091-0.0371 3.0819-1.0821 6.3911-7.1358 1.7135-8.0609-3.3882-1.5803-6.8733 1.5678-10.092 2.9771-1.1432 0.97018-2.2476 3.2681-1.7134 5.1209zm3.1282-11.433c0.29506-0.20042-0.16422-0.2474 0 0zm6.1933 21.684c2.2512 3.4652 10.239-2.1859 5.1043-5.0047-2.7687-2.5259-5.9224 2.198-5.1043 5.0047zm0.67876-3.7306c0.29512-0.20042-0.16422-0.2474 0 0zm14.995 12.112c0.30811-0.21948-0.30818-0.21948 0 0zm-28.949-48.62c0.31811 0.22018-0.30792 0.33024 0 0zm4.8104-4.0803c0.31817 0.22032-0.30805 0.33009 0 0zm14.224 72.894c0.22851 0.1241-0.37058 0.0383 0 0zm12.84-4.0441c0.16422 0.2474-0.29506 0.20044 0 0zm-17.615-76.709c0.5981-0.19606-0.59792-0.0608 0 0zm9.1106-0.4295c0.42006-0.0663-0.27766-0.24152 0 0zm12.536 75.163c0.3061-0.21178-0.31409-0.10404 0 0zm8.1606-64.254c0.31402-0.10393-0.30597-0.21185 0 0zm-60.589 130.54c0.38883-0.26455-0.0727 0.37797 0 0zm14.424-34.325c0.22857 0.1241-0.37058 0.0382 0 0zm84.66-3.5538c0.53882-0.57828 0.0874 0.85781 0 0zm-141.8-63.37c0.21342-0.0856-0.0846-0.68651 0 0zm22.919 117.14c-0.037-0.16547-0.37642 0.1233 0 0zm5.3098-21.663c0.31409-0.10403-0.30616-0.21176 0 0zm31.031-172.78c2.2334 4.9065 3.9144 10.393 7.3257 14.543 6.487-0.66345 12.264-2.1624 18.944-1.9969 2.447-0.22534 6.4577 0.86771 5.4933-3.363 1.9947-5.2839 5.4871-9.4097 8.3348-14.05 1.1247-2.1502 3.6225-7.2134-0.53954-7.2401-4.8936 0.31977-7.6918 5.4648-9.0379 9.9766-2.7155 1.5015-3.8982-2.1508-2.8758-4.8283-1.0626-9.0214 2.5192-18.6-0.70616-27.247-1.8975-1.7314-3.2357 0.82078-5.0469 1.4639-2.7235 2.2696-3.866 5.2605-4.9476 8.8449-2.5349 7.785-3.3523 16.509-4.1908 25.186-4.3551 0.92283-4.4273-5.6657-7.0872-7.8309-3.4627-5.6501-7.1851 3.6316-5.6658 6.5413zm13.611-6.8202c0.13311-0.66535-0.1376-0.12779 0 0zm12.59-28.097c-0.0858-0.15039-0.47311 0.13946 0 0zm9.2558 44.053c0.32695-0.30823-0.33863-0.1067 0 0zm6.3728-23.607c-0.037-0.16546-0.37643 0.1233 0 0zm16.407 195.85c-0.037-0.16547-0.37642 0.1233 0 0zm10.026 2.2574c4.8407 7.7178 14.229 9.4658 22.112 12.127 6.652 3.0124 14.572 3.6475 21.684 4.2677 5.2195-0.6416 10.734-1.218 15.275-2.5618 6.6331-1.1187 12.661-4.6521 16.616-10.163 3.7428-7.1048 4.3488-18.033-3.5674-22.482-11.608-6.701-26.52-5.3423-38.693-0.59876-3.826-0.0454-5.9593 1.9882-8.6786 4.6206-7.5176 5.7351-16.017 10.123-24.687 13.671l-0.19039 0.58579 0.1287 0.53351-5.2e-4 3.4e-4zm-130.99-30.001c0.59795 0.0609-0.59809 0.19607 0 0zm7.9881 45.166c0.5158-0.21318 0.0612 0.39905 0 0zm8.6767-146.38c0.31411 0.10403-0.30613 0.21176 0 0zm1.1811-1.2565c0.14683 0.34418-0.44725 0.30046 0 0zm82.615-39.129c0.50331 0.44584-0.50681-0.0399 0 0z"
       id="path1" />
    <path
       d="m504.41 765.62c-0.19893-0.20369-3.7346-0.7297-7.8572-1.1689-8.9876-0.95755-12.052-1.7638-26.301-6.9211-15.41-5.5772-21.771-8.7259-28.337-14.026-8.7853-7.091-10.59-9.1415-14.202-16.134-5.4336-10.52-6.2511-14.832-6.382-33.659-0.12223-17.59 0.47026-21.875 4.5596-32.979 4.022-10.921 13.408-27.286 19.449-33.909 6.187-6.7835 20.534-19.54 26.07-23.179 6.3953-4.2042 10.425-5.748 20.523-7.8631 10.365-2.1709 27.535-2.4328 30.319-0.46246 0.97134 0.6875 2.3107 1.25 2.9764 1.25 1.3193 0 10.298 4.5512 12.069 6.1176 1.205 1.0658 9.8738 6.2484 19.111 11.426 8.594 4.8166 19.562 14.2 25.614 21.913 7.5156 9.5787 14.197 22.499 17.824 34.472 1.7404 5.7434 1.9509 7.5706 1.9755 17.143 0.0266 10.367-0.0486 10.923-2.3213 17.143-4.3004 11.77-12.351 25.811-18.951 33.052-7.588 8.325-23.914 18.296-33.032 20.175-4.9448 1.0189-10.065 2.28-17.39 4.2832-2.9464 0.8058-8.4107 1.7658-12.143 2.1334-3.7322 0.36757-8.2322 0.86979-10 1.116-1.7679 0.24626-3.377 0.28108-3.576 0.0774zm25.54-34.111c1.0802-1.9969 2.9851-5.3716 4.233-7.4994s2.3729-4.3995 2.5-5.0483 1.5168-1.6202 3.0882-2.1589c2.3902-0.81923 13.015-5.4751 16.786-7.3556 0.58929-0.29388 1.0714-1.1422 1.0714-1.8851 0-2.1174-3.1261-1.4933-11.033 2.2026-10.056 4.7005-24.618 9.3942-33.464 10.786-9.8656 1.5524-21.156 1.0442-31.844-1.4335-10.415-2.4144-13.855-4.9723-26.716-19.87-5.093-5.8995-7.0376-7.6786-8.3928-7.6786-0.97018 0-1.764 0.41072-1.764 0.91269 0 0.50199 2.4051 3.5575 5.3446 6.7901s5.551 6.6996 5.8032 7.7045 0.24625 5.2619-0.0133 9.4599c-0.40407 6.5363-0.28858 7.9916 0.80393 10.131 1.7333 3.3936 3.1518 3.4343 4.6628 0.13362 0.68427-1.4948 2.3666-4.0292 3.7386-5.632l2.4944-2.9142 4.1186 1.6572c7.9196 3.1867 19.419 4.9636 30.904 4.7753 5.6964-0.0934 11.634-0.24812 13.195-0.34385 2.6912-0.16507 2.9552 0.0102 5.1155 3.3974 3.3879 5.3119 5.2514 7.5 6.3871 7.5 0.55952 0 1.9012-1.6338 2.9814-3.6307zm-22.41-32.884c13.214-3.0717 24.788-11.611 29.413-21.699 3.7144-8.1022 6.2948-17.833 6.3452-23.929 0.0379-4.5759-0.23416-5.8259-1.8652-8.5714-1.0502-1.7678-2.9771-5.1428-4.282-7.5-2.5869-4.673-10.497-13.057-15.594-16.529-5.4016-3.679-11.056-5.4681-17.528-5.5454-8.3816-0.10012-14.081 2.8473-24.216 12.524-11.379 10.864-17.948 20.411-20.772 30.185-1.416 4.902-1.6317 15.075-0.41373 19.512 1.0414 3.7939 7.219 13.092 10.489 15.787 2.5496 2.1016 11.012 5.3899 16.726 6.4992 5.9579 1.1567 14.858 0.85543 21.697-0.7344z"
       fill="#f60"
       stroke="#000"
       stroke-linecap="round"
       stroke-linejoin="round"
       stroke-width="1.0207"
       id="path2" />
    <path
       d="m591.91 777.52c-9.4326-1.1528-25.052-5.7028-32.178-9.3738-2.7755-1.4297-8.0193-6.2751-7.416-6.8526 0.16958-0.16231 4.4869-2.4093 9.594-4.9933s11.528-6.4859 14.268-8.671 5.794-4.155 6.7857-4.3777 4.3746-1.1982 7.5175-2.1677c17.111-5.2784 35.486-1.0277 38.831 8.9829 3.3919 10.149-4.1085 21.418-16.5 24.791-3.8441 1.0464-16.757 3.2124-18.046 3.027-0.39286-0.0565-1.6786-0.22067-2.8571-0.36471z"
       fill="#f00"
       stroke="#000"
       stroke-linecap="round"
       stroke-linejoin="round"
       stroke-width="1.0207"
       id="path3" />
    <path
       d="m424.05 773.01c-4.9126-0.5824-17.734-4.7885-20.88-6.8496-2.1393-1.4017-4.478-6.1261-4.4731-9.0358 4e-3 -2.3964 4.3759-8.629 10.581-15.085 3.4068-3.5444 4.3228-4.0137 11.467-5.8755l5.9811-1.5587 3.3215 3.2989c9.3595 9.2959 20.856 16.518 33.568 21.086 7.2684 2.6124 7.5792 2.811 6.195 3.9597-1.7398 1.4439-15.936 7.2172-21.348 8.6814-5.7503 1.556-17.376 2.2122-24.413 1.3779z"
       fill="#f00"
       stroke="#000"
       stroke-linecap="round"
       stroke-linejoin="round"
       stroke-width="1.0207"
       id="path4" />
    <path
       d="m487.2 584.78c-3.8584-7.8996-4.175-10.362-1.7518-13.625 1.4055-1.8925 3.0781-0.78351 5.5138 3.656 3.9076 7.1223 5.8852 6.5928 6.6147-1.7709 0.70645-8.0986 2.8646-17.978 4.8969-22.418 1.6193-3.5371 4.9817-6.913 6.8852-6.913 1.8927 0 2.3307 4.0212 1.8423 16.913-0.27056 7.1414-0.28056 13.65-0.0222 14.464 0.87076 2.7435 2.945 1.7209 4.9908-2.4605 1.9651-4.0166 4.522-6.0596 7.5835-6.0596 1.3915 0 1.5127 0.27612 1.137 2.5914-0.23128 1.4252-2.0177 5.0413-3.9699 8.0357-3.2754 5.0241-5.1026 8.5391-6.0791 11.694-0.30322 0.97972-1.2026 1.2549-4.1593 1.2726-2.0748 0.0125-7.1474 0.48441-11.272 1.0488s-7.7354 1.0364-8.023 1.0488c-0.28767 0.0124-2.1716-3.3526-4.1865-7.4779z"
       fill="#ff0"
       stroke="#000"
       stroke-linecap="round"
       stroke-linejoin="round"
       stroke-width="1.0207"
       id="path5" />
    <path
       style="fill:#ffffff;stroke-width:0.573916;stroke-linecap:round;stroke-linejoin:round;paint-order:markers stroke fill"
       d="m 145.56839,189.64503 c -3.90437,0.9549 -7.7195,2.40907 -11.48392,3.79154 -0.45535,1.22821 1.10559,2.22601 1.42979,3.34874 1.2259,1.8291 2.11539,4.33106 4.24268,5.25888 1.91681,-0.20332 2.25638,-2.66354 3.23051,-3.96417 1.15278,-2.55481 2.86502,-4.99655 3.4222,-7.75459 -0.022,-0.42933 -0.42669,-0.72204 -0.84126,-0.6804 z"
       id="path7"
       transform="matrix(0.93750355,0,0,0.93750355,395.23936,540.89)" />
    <path
       style="fill:#ffffff;stroke-width:0.573916;stroke-linecap:round;stroke-linejoin:round;paint-order:markers stroke fill"
       d="m 68.806579,180.32169 c -1.48245,0.33026 -0.871336,2.42549 -1.169702,3.50459 -0.02065,2.82837 -0.550982,5.78854 0.149656,8.54989 0.694208,1.49918 2.436545,0.39454 3.019784,-0.60642 0.748932,-1.12353 1.58956,-2.12496 2.580941,-2.99232 1.429851,-1.64431 1.229178,-4.14437 -0.429316,-5.55309 -1.236098,-1.06144 -2.482415,-2.61264 -4.151363,-2.90265 z"
       id="path8"
       transform="matrix(0.93750355,0,0,0.93750355,395.23936,540.89)" />
  </g>
</svg>
