<?xml version="1.0" encoding="UTF-8" standalone="no"?>
<!-- Created with Inkscape (http://www.inkscape.org/) -->

<svg
   xmlns:dc="http://purl.org/dc/elements/1.1/"
   xmlns:cc="http://creativecommons.org/ns#"
   xmlns:rdf="http://www.w3.org/1999/02/22-rdf-syntax-ns#"
   xmlns:svg="http://www.w3.org/2000/svg"
   xmlns="http://www.w3.org/2000/svg"
   xmlns:xlink="http://www.w3.org/1999/xlink"
   version="1.1"
   width="537.0755"
   height="197.12874"
   id="svg15591">
  <defs
     id="defs15593">
    <linearGradient
       x1="29.870001"
       y1="32.285999"
       x2="24.841999"
       y2="14.158"
       id="linearGradient2212"
       gradientUnits="userSpaceOnUse"
       gradientTransform="matrix(0.95741,0,0,0.95233,1.0228,0.13331)">
      <stop
         id="stop2208"
         style="stop-color:#777973;stop-opacity:1"
         offset="0" />
      <stop
         id="stop2210"
         style="stop-color:#cbccca;stop-opacity:1"
         offset="1" />
    </linearGradient>
    <linearGradient
       x1="8.6528997"
       y1="9.5865002"
       x2="21.305"
       y2="32.498001"
       id="linearGradient2220"
       gradientUnits="userSpaceOnUse"
       gradientTransform="matrix(0.95741,0,0,0.95233,1.0228,0.13331)">
      <stop
         id="stop5178"
         style="stop-color:#a2a59c;stop-opacity:1"
         offset="0" />
      <stop
         id="stop5180"
         style="stop-color:#535750;stop-opacity:1"
         offset="1" />
    </linearGradient>
    <linearGradient
       x1="20.339001"
       y1="19.636999"
       x2="48.845001"
       y2="49.730999"
       id="linearGradient2244"
       gradientUnits="userSpaceOnUse"
       gradientTransform="matrix(0.95351,0,0,0.94787,1.1415,1.2056)">
      <stop
         id="stop2240"
         style="stop-color:#ffffff;stop-opacity:1"
         offset="0" />
      <stop
         id="stop2242"
         style="stop-color:#ffffff;stop-opacity:0"
         offset="1" />
    </linearGradient>
    <linearGradient
       id="linearGradient9165">
      <stop
         id="stop9189"
         style="stop-color:#464646;stop-opacity:1"
         offset="0" />
      <stop
         id="stop9169"
         style="stop-color:#ffffff;stop-opacity:1"
         offset="1" />
    </linearGradient>
    <linearGradient
       x1="234.33141"
       y1="186.13435"
       x2="244.1302"
       y2="186.13435"
       id="linearGradient16760"
       xlink:href="#linearGradient9165"
       gradientUnits="userSpaceOnUse" />
    <linearGradient
       x1="231.24866"
       y1="204.89925"
       x2="247.21294"
       y2="204.89925"
       id="linearGradient16762"
       xlink:href="#linearGradient9165"
       gradientUnits="userSpaceOnUse" />
    <linearGradient
       x1="234.33141"
       y1="186.13435"
       x2="244.1302"
       y2="186.13435"
       id="linearGradient16764"
       xlink:href="#linearGradient9165"
       gradientUnits="userSpaceOnUse" />
    <linearGradient
       x1="231.24866"
       y1="204.89925"
       x2="247.21294"
       y2="204.89925"
       id="linearGradient16766"
       xlink:href="#linearGradient9165"
       gradientUnits="userSpaceOnUse" />
    <linearGradient
       x1="234.33141"
       y1="186.13435"
       x2="244.1302"
       y2="186.13435"
       id="linearGradient16784"
       xlink:href="#linearGradient9165"
       gradientUnits="userSpaceOnUse" />
    <linearGradient
       x1="231.24866"
       y1="204.89925"
       x2="247.21294"
       y2="204.89925"
       id="linearGradient16786"
       xlink:href="#linearGradient9165"
       gradientUnits="userSpaceOnUse" />
    <linearGradient
       x1="234.33141"
       y1="186.13435"
       x2="244.1302"
       y2="186.13435"
       id="linearGradient16788"
       xlink:href="#linearGradient9165"
       gradientUnits="userSpaceOnUse" />
    <linearGradient
       x1="231.24866"
       y1="204.89925"
       x2="247.21294"
       y2="204.89925"
       id="linearGradient16790"
       xlink:href="#linearGradient9165"
       gradientUnits="userSpaceOnUse" />
    <linearGradient
       x1="234.33141"
       y1="186.13435"
       x2="244.1302"
       y2="186.13435"
       id="linearGradient16792"
       xlink:href="#linearGradient9165"
       gradientUnits="userSpaceOnUse" />
    <linearGradient
       x1="231.24866"
       y1="204.89925"
       x2="247.21294"
       y2="204.89925"
       id="linearGradient16794"
       xlink:href="#linearGradient9165"
       gradientUnits="userSpaceOnUse" />
    <linearGradient
       x1="234.33141"
       y1="186.13435"
       x2="244.1302"
       y2="186.13435"
       id="linearGradient16796"
       xlink:href="#linearGradient9165"
       gradientUnits="userSpaceOnUse" />
    <linearGradient
       x1="231.24866"
       y1="204.89925"
       x2="247.21294"
       y2="204.89925"
       id="linearGradient16798"
       xlink:href="#linearGradient9165"
       gradientUnits="userSpaceOnUse" />
    <linearGradient
       x1="234.33141"
       y1="186.13435"
       x2="244.1302"
       y2="186.13435"
       id="linearGradient16800"
       xlink:href="#linearGradient9165"
       gradientUnits="userSpaceOnUse" />
    <linearGradient
       x1="231.24866"
       y1="204.89925"
       x2="247.21294"
       y2="204.89925"
       id="linearGradient16802"
       xlink:href="#linearGradient9165"
       gradientUnits="userSpaceOnUse" />
    <linearGradient
       x1="234.33141"
       y1="186.13435"
       x2="244.1302"
       y2="186.13435"
       id="linearGradient16804"
       xlink:href="#linearGradient9165"
       gradientUnits="userSpaceOnUse" />
    <linearGradient
       x1="231.24866"
       y1="204.89925"
       x2="247.21294"
       y2="204.89925"
       id="linearGradient16806"
       xlink:href="#linearGradient9165"
       gradientUnits="userSpaceOnUse" />
    <linearGradient
       x1="20.339001"
       y1="19.636999"
       x2="48.845001"
       y2="49.730999"
       id="linearGradient19006"
       xlink:href="#linearGradient2244"
       gradientUnits="userSpaceOnUse"
       gradientTransform="matrix(1.3384504,0,0,1.3305335,177.04155,302.07737)" />
    <linearGradient
       x1="29.870001"
       y1="32.285999"
       x2="24.841999"
       y2="14.158"
       id="linearGradient19009"
       xlink:href="#linearGradient2212"
       gradientUnits="userSpaceOnUse"
       gradientTransform="matrix(1.3439249,0,0,1.336794,176.87492,300.57219)" />
    <linearGradient
       x1="8.6528997"
       y1="9.5865002"
       x2="21.305"
       y2="32.498001"
       id="linearGradient19011"
       xlink:href="#linearGradient2220"
       gradientUnits="userSpaceOnUse"
       gradientTransform="matrix(1.3439249,0,0,1.336794,176.87492,300.57219)" />
  </defs>
  <metadata
     id="metadata15596">
    <rdf:RDF>
      <cc:Work
         rdf:about="">
        <dc:format>image/svg+xml</dc:format>
        <dc:type
           rdf:resource="http://purl.org/dc/dcmitype/StillImage" />
        <dc:title></dc:title>
      </cc:Work>
    </rdf:RDF>
  </metadata>
  <g
     transform="translate(-121.52682,-266.88977)"
     id="layer1">
    <text
       x="382.43307"
       y="308.20789"
       id="177-8"
       xml:space="preserve"
       style="font-size:12.800313px;font-style:normal;font-weight:normal;text-align:start;text-anchor:start;fill:#000000;font-family:Verdana" />
    <path
       d="m 126.87135,432.98532 49.26273,-29.51118 415.13139,0 -49.23367,29.51118 z"
       id="164-7"
       style="fill:#c8483a;fill-opacity:1;fill-rule:evenodd;stroke:none" />
    <path
       d="m 126.87135,432.98532 49.26273,-29.51118 415.13139,0 -49.23367,29.51118 z"
       id="165-8"
       style="fill:none;stroke:#000000;stroke-width:0.69711405px;stroke-linecap:butt;stroke-linejoin:round;stroke-opacity:1;stroke-dasharray:none" />
    <path
       d="m 542.23513,433.0434 48.91416,-29.56926 0,29.56926 -48.91416,29.68543 z"
       id="166-3"
       style="fill:#e6aaa4;fill-opacity:1;fill-rule:evenodd;stroke:none" />
    <path
       d="m 542.23513,433.0434 48.91416,-29.56926 0,29.56926 -48.91416,29.68543"
       id="167-5"
       style="fill:none;stroke:#000000;stroke-width:0.69711405px;stroke-linecap:butt;stroke-linejoin:round;stroke-opacity:1;stroke-dasharray:none" />
    <path
       d="m 126.87135,432.98532 0,29.74351 415.36378,0 0,-29.74351 -415.36378,0 z"
       id="168-1"
       style="fill:#da857c;fill-opacity:1;fill-rule:evenodd;stroke:none" />
    <path
       d="m 126.87135,462.72883 415.36378,0 0,-29.74351 -415.36378,0 0,29.74351 z"
       id="169-2"
       style="fill:none;stroke:#000000;stroke-width:0.69711405px;stroke-linecap:butt;stroke-linejoin:round;stroke-opacity:1;stroke-dasharray:none" />
    <text
       x="255.0435"
       y="454.36243"
       id="170-0"
       xml:space="preserve"
       style="font-size:17.42785072px;font-style:normal;font-weight:normal;text-align:start;text-anchor:start;fill:#000000;font-family:Verdana">Datenbanksystem</text>
    <text
       x="605.69653"
       y="463.83929"
       id="171-1"
       xml:space="preserve"
       style="font-size:13.5937233px;font-style:normal;font-weight:normal;text-align:start;text-anchor:start;fill:#000000;font-family:Verdana">Server</text>
    <text
       x="149.01303"
       y="282.28418"
       id="172-6"
       xml:space="preserve"
       style="font-size:13.5937233px;font-style:normal;font-weight:normal;text-align:start;text-anchor:start;fill:#000000;font-family:Verdana">Fahrplanauskunft</text>
    <text
       x="180.61552"
       y="298.55017"
       id="173-4"
       xml:space="preserve"
       style="font-size:13.5937233px;font-style:normal;font-weight:normal;text-align:start;text-anchor:start;fill:#000000;font-family:Verdana">bahn.de</text>
    <text
       x="286.97131"
       y="282.28418"
       id="174-0"
       xml:space="preserve"
       style="font-size:13.5937233px;font-style:normal;font-weight:normal;text-align:start;text-anchor:start;fill:#000000;font-family:Verdana">Infotafel im</text>
    <text
       x="298.35751"
       y="298.55017"
       id="175-6"
       xml:space="preserve"
       style="font-size:13.5937233px;font-style:normal;font-weight:normal;text-align:start;text-anchor:start;fill:#000000;font-family:Verdana">Bahnhof</text>
    <text
       x="385.63107"
       y="282.28418"
       id="176-1"
       xml:space="preserve"
       style="font-size:13.5937233px;font-style:normal;font-weight:normal;text-align:start;text-anchor:start;fill:#000000;font-family:Verdana">Programm im</text>
    <text
       x="506.31583"
       y="282.28418"
       id="178-9"
       xml:space="preserve"
       style="font-size:13.5937233px;font-style:normal;font-weight:normal;text-align:start;text-anchor:start;fill:#000000;font-family:Verdana">Smartphone</text>
    <text
       x="497.95047"
       y="298.55017"
       id="179-8"
       xml:space="preserve"
       style="font-size:13.5937233px;font-style:normal;font-weight:normal;text-align:start;text-anchor:start;fill:#000000;font-family:Verdana">des Schaffners</text>
    <text
       x="598.73627"
       y="334.48373"
       id="1246"
       xml:space="preserve"
       style="font-size:13.5937233px;font-style:normal;font-weight:normal;text-align:start;text-anchor:start;fill:#000000;font-family:Verdana">Clients</text>
    <g
       transform="matrix(1.1179335,0,0,1.1179335,-46.360822,176.54604)"
       id="g9207">
      <g
         transform="translate(-3.5714286,0)"
         id="g9193">
        <path
           d="m 243.7999,199.66269 c 0,-1.58266 -2.04375,-2.87632 -4.56914,-2.87632 -2.51848,0 -4.56905,1.29366 -4.56905,2.87632 0,1.58954 2.05057,2.87632 4.56905,2.87632 2.52539,0 4.56914,-1.28678 4.56914,-2.87632 z m 0,0 0,-27.0498 c 0,-1.58954 -2.04375,-2.8832 -4.56914,-2.8832 -2.51848,0 -4.56905,1.29366 -4.56905,2.8832 l 0,27.0498"
           id="551"
           style="fill:url(#linearGradient16760);fill-opacity:1;stroke:#000000;stroke-width:0.66059035px;stroke-linecap:butt;stroke-linejoin:round;stroke-opacity:1;stroke-dasharray:none" />
        <path
           d="m 239.23076,213.65894 -7.6518,-15.57891 c 1.29364,-2.58732 14.02375,-2.58732 15.30368,0 l -7.65188,15.57891 z"
           id="599"
           style="fill:url(#linearGradient16762);fill-opacity:1;stroke:#000000;stroke-width:0.66059035px;stroke-linecap:butt;stroke-linejoin:round;stroke-opacity:1;stroke-dasharray:none" />
      </g>
      <g
         transform="matrix(1,0,0,-1,-18.571429,383.38863)"
         id="g9197">
        <path
           d="m 243.7999,199.66269 c 0,-1.58266 -2.04375,-2.87632 -4.56914,-2.87632 -2.51848,0 -4.56905,1.29366 -4.56905,2.87632 0,1.58954 2.05057,2.87632 4.56905,2.87632 2.52539,0 4.56914,-1.28678 4.56914,-2.87632 z m 0,0 0,-27.0498 c 0,-1.58954 -2.04375,-2.8832 -4.56914,-2.8832 -2.51848,0 -4.56905,1.29366 -4.56905,2.8832 l 0,27.0498"
           id="path9199"
           style="fill:url(#linearGradient16764);fill-opacity:1;stroke:#000000;stroke-width:0.66059035px;stroke-linecap:butt;stroke-linejoin:round;stroke-opacity:1;stroke-dasharray:none" />
        <path
           d="m 239.23076,213.65894 -7.6518,-15.57891 c 1.29364,-2.58732 14.02375,-2.58732 15.30368,0 l -7.65188,15.57891 z"
           id="path9201"
           style="fill:url(#linearGradient16766);fill-opacity:1;stroke:#000000;stroke-width:0.66059035px;stroke-linecap:butt;stroke-linejoin:round;stroke-opacity:1;stroke-dasharray:none" />
      </g>
    </g>
    <text
       x="400.5011"
       y="298.55017"
       id="text13973"
       xml:space="preserve"
       style="font-size:13.5937233px;font-style:normal;font-weight:normal;text-align:start;text-anchor:start;fill:#000000;font-family:Verdana">Reisebüro</text>
    <rect
       width="63.161285"
       height="54.74324"
       rx="6.8103738"
       ry="6.8103738"
       x="177.54843"
       y="305.30026"
       id="rect1316"
       style="fill:url(#linearGradient19009);fill-rule:evenodd;stroke:url(#linearGradient19011);stroke-width:1.4037087;stroke-linecap:round;stroke-linejoin:round" />
    <rect
       width="60.282276"
       height="51.938629"
       rx="5.3214598"
       ry="5.3214598"
       x="179.0247"
       y="306.70273"
       id="rect2232"
       style="opacity:0.76374003;fill:#4d4d4d;stroke:url(#linearGradient19006);stroke-width:1.4037087;stroke-linecap:round;stroke-linejoin:round" />
    <rect
       width="47.762596"
       height="36.576443"
       rx="0.16525863"
       ry="0.16525863"
       x="185.25044"
       y="312.99106"
       id="rect1340"
       style="opacity:0.71429001;fill:#ffffff;stroke:#000000;stroke-width:2.80741739;stroke-linecap:round;stroke-linejoin:round" />
    <rect
       width="5.6430492"
       height="4.153574"
       rx="0.5027945"
       ry="0.78639984"
       x="225.25125"
       y="353.04517"
       id="rect5025"
       style="fill:#cccccc;fill-rule:evenodd;stroke:#6b6b6b;stroke-width:0.2;stroke-linecap:round;stroke-miterlimit:4;stroke-opacity:1;stroke-dasharray:none" />
    <rect
       width="2.8074174"
       height="2.8074174"
       rx="0.78639984"
       ry="0.78639984"
       x="220.35788"
       y="353.72601"
       id="rect6458"
       style="fill:#93d94c;fill-rule:evenodd" />
    <path
       d="m 28.875,38.75 a 0.5625,0.5625 0 1 1 -1.125,0 0.5625,0.5625 0 1 1 1.125,0 z"
       transform="matrix(1.4037089,0,0,1.4037089,181.58044,300.29734)"
       id="path2300"
       style="color:#000000;fill:#ffffff" />
    <rect
       width="39.168427"
       height="7.9193001"
       rx="0"
       ry="1.2884492"
       x="187.22273"
       y="315.8399"
       id="rect14023"
       style="fill:#ff0000;fill-opacity:1;stroke-width:0.186;stroke-miterlimit:4;stroke-dasharray:none" />
    <text
       x="189.36308"
       y="322.79605"
       id="text14017"
       xml:space="preserve"
       style="font-size:8.47535896px;font-style:normal;font-variant:normal;font-weight:normal;font-stretch:normal;text-align:start;line-height:125%;letter-spacing:0px;word-spacing:0px;writing-mode:lr-tb;text-anchor:start;fill:#ffffff;fill-opacity:1;stroke:none;font-family:Verdana;-inkscape-font-specification:Verdana"><tspan
         x="189.36308"
         y="322.79605"
         id="tspan14019">Bahn</tspan></text>
    <rect
       width="65.426727"
       height="50.103573"
       rx="0.22637656"
       ry="0.22637656"
       x="294.53879"
       y="306.22748"
       id="rect14114"
       style="opacity:0.71429001;fill:#ffffff;stroke:#000000;stroke-width:3.84569001;stroke-linecap:round;stroke-linejoin:round" />
    <rect
       width="53.654156"
       height="10.848109"
       rx="0"
       ry="1.7649586"
       x="297.24051"
       y="310.12991"
       id="rect14124"
       style="fill:#ff0000;fill-opacity:1;stroke-width:0.186;stroke-miterlimit:4;stroke-dasharray:none" />
    <text
       x="300.17239"
       y="319.65863"
       id="text14126"
       xml:space="preserve"
       style="font-size:11.60981464px;font-style:normal;font-variant:normal;font-weight:normal;font-stretch:normal;text-align:start;line-height:125%;letter-spacing:0px;word-spacing:0px;writing-mode:lr-tb;text-anchor:start;fill:#ffffff;fill-opacity:1;stroke:none;font-family:Verdana;-inkscape-font-specification:Verdana"><tspan
         x="300.17239"
         y="319.65863"
         id="tspan14128">Bahn</tspan></text>
    <path
       d="m 458.86557,353.05931 c 0,2.23121 -10.32738,4.04022 -23.06668,4.04022 -12.73929,0 -23.06667,-1.80901 -23.06667,-4.04022 0,-2.23164 10.32738,-4.04066 23.06667,-4.04066 12.7393,0 23.06668,1.80815 23.06668,4.04023 z"
       id="path14183"
       style="fill:#808080;stroke:#000000;stroke-width:1.39488482" />
    <path
       d="m 438.6931,352.66134 h -6.59055 v -18.06118 h 6.59055 v 18.06118 z"
       id="path14185"
       style="stroke:#000000;stroke-width:1.39488482" />
    <path
       d="m 462.40898,337.66623 c 0,2.86665 -2.6853,5.19086 -5.99732,5.19086 h -44.02529 c -3.31201,0 -5.99731,-2.32421 -5.99731,-5.19086 v -28.59735 c 0,-2.86665 2.6853,-5.19086 5.99731,-5.19086 h 44.0243 c 3.31201,0 5.99731,2.32421 5.99731,5.19086 v 28.59735 z"
       id="path14192"
       style="fill:#999999;stroke:#000000;stroke-width:2.78976965" />
    <g
       transform="matrix(1.1179335,0,0,1.1179335,179.38041,176.54604)"
       id="g14243">
      <g
         transform="translate(-3.5714286,0)"
         id="g14245">
        <path
           d="m 243.7999,199.66269 c 0,-1.58266 -2.04375,-2.87632 -4.56914,-2.87632 -2.51848,0 -4.56905,1.29366 -4.56905,2.87632 0,1.58954 2.05057,2.87632 4.56905,2.87632 2.52539,0 4.56914,-1.28678 4.56914,-2.87632 z m 0,0 0,-27.0498 c 0,-1.58954 -2.04375,-2.8832 -4.56914,-2.8832 -2.51848,0 -4.56905,1.29366 -4.56905,2.8832 l 0,27.0498"
           id="path14247"
           style="fill:url(#linearGradient16784);fill-opacity:1;stroke:#000000;stroke-width:0.66059035px;stroke-linecap:butt;stroke-linejoin:round;stroke-opacity:1;stroke-dasharray:none" />
        <path
           d="m 239.23076,213.65894 -7.6518,-15.57891 c 1.29364,-2.58732 14.02375,-2.58732 15.30368,0 l -7.65188,15.57891 z"
           id="path14249"
           style="fill:url(#linearGradient16786);fill-opacity:1;stroke:#000000;stroke-width:0.66059035px;stroke-linecap:butt;stroke-linejoin:round;stroke-opacity:1;stroke-dasharray:none" />
      </g>
      <g
         transform="matrix(1,0,0,-1,-18.571429,383.38863)"
         id="g14251">
        <path
           d="m 243.7999,199.66269 c 0,-1.58266 -2.04375,-2.87632 -4.56914,-2.87632 -2.51848,0 -4.56905,1.29366 -4.56905,2.87632 0,1.58954 2.05057,2.87632 4.56905,2.87632 2.52539,0 4.56914,-1.28678 4.56914,-2.87632 z m 0,0 0,-27.0498 c 0,-1.58954 -2.04375,-2.8832 -4.56914,-2.8832 -2.51848,0 -4.56905,1.29366 -4.56905,2.8832 l 0,27.0498"
           id="path14253"
           style="fill:url(#linearGradient16788);fill-opacity:1;stroke:#000000;stroke-width:0.66059035px;stroke-linecap:butt;stroke-linejoin:round;stroke-opacity:1;stroke-dasharray:none" />
        <path
           d="m 239.23076,213.65894 -7.6518,-15.57891 c 1.29364,-2.58732 14.02375,-2.58732 15.30368,0 l -7.65188,15.57891 z"
           id="path14255"
           style="fill:url(#linearGradient16790);fill-opacity:1;stroke:#000000;stroke-width:0.66059035px;stroke-linecap:butt;stroke-linejoin:round;stroke-opacity:1;stroke-dasharray:none" />
      </g>
    </g>
    <g
       transform="matrix(1.1179335,0,0,1.1179335,66.509798,176.54604)"
       id="g14257">
      <g
         transform="translate(-3.5714286,0)"
         id="g14259">
        <path
           d="m 243.7999,199.66269 c 0,-1.58266 -2.04375,-2.87632 -4.56914,-2.87632 -2.51848,0 -4.56905,1.29366 -4.56905,2.87632 0,1.58954 2.05057,2.87632 4.56905,2.87632 2.52539,0 4.56914,-1.28678 4.56914,-2.87632 z m 0,0 0,-27.0498 c 0,-1.58954 -2.04375,-2.8832 -4.56914,-2.8832 -2.51848,0 -4.56905,1.29366 -4.56905,2.8832 l 0,27.0498"
           id="path14261"
           style="fill:url(#linearGradient16792);fill-opacity:1;stroke:#000000;stroke-width:0.66059035px;stroke-linecap:butt;stroke-linejoin:round;stroke-opacity:1;stroke-dasharray:none" />
        <path
           d="m 239.23076,213.65894 -7.6518,-15.57891 c 1.29364,-2.58732 14.02375,-2.58732 15.30368,0 l -7.65188,15.57891 z"
           id="path14263"
           style="fill:url(#linearGradient16794);fill-opacity:1;stroke:#000000;stroke-width:0.66059035px;stroke-linecap:butt;stroke-linejoin:round;stroke-opacity:1;stroke-dasharray:none" />
      </g>
      <g
         transform="matrix(1,0,0,-1,-18.571429,383.38863)"
         id="g14265">
        <path
           d="m 243.7999,199.66269 c 0,-1.58266 -2.04375,-2.87632 -4.56914,-2.87632 -2.51848,0 -4.56905,1.29366 -4.56905,2.87632 0,1.58954 2.05057,2.87632 4.56905,2.87632 2.52539,0 4.56914,-1.28678 4.56914,-2.87632 z m 0,0 0,-27.0498 c 0,-1.58954 -2.04375,-2.8832 -4.56914,-2.8832 -2.51848,0 -4.56905,1.29366 -4.56905,2.8832 l 0,27.0498"
           id="path14267"
           style="fill:url(#linearGradient16796);fill-opacity:1;stroke:#000000;stroke-width:0.66059035px;stroke-linecap:butt;stroke-linejoin:round;stroke-opacity:1;stroke-dasharray:none" />
        <path
           d="m 239.23076,213.65894 -7.6518,-15.57891 c 1.29364,-2.58732 14.02375,-2.58732 15.30368,0 l -7.65188,15.57891 z"
           id="path14269"
           style="fill:url(#linearGradient16798);fill-opacity:1;stroke:#000000;stroke-width:0.66059035px;stroke-linecap:butt;stroke-linejoin:round;stroke-opacity:1;stroke-dasharray:none" />
      </g>
    </g>
    <rect
       width="32.729198"
       height="31.252691"
       rx="0.22637656"
       ry="0.22637656"
       x="410.00983"
       y="307.67108"
       id="rect14307"
       style="fill:#ffffff;fill-opacity:1;stroke:#000000;stroke-width:0.37613523;stroke-miterlimit:4;stroke-opacity:1;stroke-dasharray:none" />
    <rect
       width="24.4433"
       height="4.9420886"
       rx="0"
       ry="0.80406481"
       x="410.9314"
       y="309.14557"
       id="rect14294"
       style="fill:#ff0000;fill-opacity:1;stroke-width:0.186;stroke-miterlimit:4;stroke-dasharray:none" />
    <text
       x="412.26712"
       y="313.4866"
       id="text14296"
       xml:space="preserve"
       style="font-size:5.28910017px;font-style:normal;font-variant:normal;font-weight:normal;font-stretch:normal;text-align:start;line-height:125%;letter-spacing:0px;word-spacing:0px;writing-mode:lr-tb;text-anchor:start;fill:#ffffff;fill-opacity:1;stroke:none;font-family:Verdana;-inkscape-font-specification:Verdana"><tspan
         x="412.26712"
         y="313.4866"
         id="tspan14298">Bahn</tspan></text>
    <path
       d="m 535.58271,303.89643 h 21.90873 c 3.68617,0 6.65368,2.4087 6.65368,5.40073 v 37.53824 c 0,4.41888 -2.96751,7.9762 -6.65368,7.9762 h -21.90873 c -3.68616,0 -6.65368,-3.55746 -6.65368,-7.9762 v -37.53824 c 0,-2.99203 2.96752,-5.40073 6.65368,-5.40073 z"
       id="rect3083"
       style="fill:#1a1a1a;fill-rule:evenodd" />
    <path
       d="m 536.76603,304.90127 h 19.69466 c 3.31352,0 5.98129,2.18286 5.98129,4.89443 v 34.01959 c 0,4.0047 -2.6676,7.22857 -5.98129,7.22857 h -19.69466 c -3.31351,0 -5.98128,-3.22387 -5.98128,-7.22857 V 309.7957 c 0,-2.71157 2.6676,-4.89443 5.98128,-4.89443 z"
       id="path3854"
       style="fill:#333333;fill-rule:evenodd" />
    <rect
       width="28.725664"
       height="29.947748"
       ry="0"
       x="532.34973"
       y="309.31836"
       id="rect3861"
       style="fill:#ffffff;fill-rule:evenodd" />
    <path
       d="m 541.08405,304.90222 h 10.91808 c 0,0 0.8042,0.14314 0,0.59023 -0.80419,0.44709 -3.16568,0.0805 -5.49319,0.0805 -2.32752,0 -4.62079,0.36668 -5.42489,-0.0805 -0.80419,-0.44709 0,-0.59023 0,-0.59023 z"
       id="rect3863"
       style="fill:#808080;fill-rule:evenodd" />
    <rect
       width="31.592468"
       height="0.26676792"
       x="530.86798"
       y="345.02917"
       id="rect3887"
       style="fill:#333333;fill-rule:evenodd;stroke:#1a1a1a;stroke-width:0.15236931px" />
    <path
       d="m 534.7113,347.10979 v 1.04209 h 0.39236 v -0.59774 h 3.78366 v 0.55014 h 0.37555 v -0.99449 h -0.37555 v 0.011 h -3.78366 v -0.011 h -0.39236 z"
       id="rect3889"
       style="fill:#b3b3b3;fill-rule:evenodd" />
    <g
       transform="matrix(0.09944634,0,0,0.06221282,519.99415,326.85105)"
       id="g3949">
      <path
         d="m 377.7718,348.12457 a 9.1923885,9.1923885 0 1 1 -18.38478,0 9.1923885,9.1923885 0 1 1 18.38478,0 z"
         transform="translate(-3.8007,-1.591)"
         id="path3927"
         style="color:#000000;fill-opacity:0;stroke:#b3b3b3;stroke-width:1px" />
      <rect
         width="1.8562"
         height="13.7"
         x="363.81"
         y="339.37"
         id="rect3947"
         style="fill:#b3b3b3;fill-rule:evenodd" />
    </g>
    <g
       transform="matrix(0.15895242,0,0,0.12303304,497.68751,306.33307)"
       id="g4017">
      <path
         d="m 307.97,354.82 c -17.34,0 -34.681,-29.102 -26.01,-43.654 8.6701,-14.551 43.351,-14.551 52.021,0 8.6701,14.551 -8.6701,43.654 -26.01,43.654 z"
         id="path3884"
         style="fill:#b3b3b3;fill-rule:evenodd;stroke:#808080" />
      <path
         d="m 307.97,303.4 c -12.606,0 -25.213,23.472 -18.909,35.209 6.3032,11.736 31.516,11.736 37.819,0 6.3031,-11.736 -6.3032,-35.209 -18.909,-35.209 z"
         id="path3989"
         style="fill:#333333;fill-rule:evenodd;stroke:#808080;stroke-width:0.76573998" />
    </g>
    <path
       d="m 553.99059,347.20199 v 1.0421 h 0.39236 v -0.59775 h 3.78365 v 0.55013 h 0.37556 v -0.99448 h -0.37556 v 0.011 h -3.78365 v -0.011 h -0.39236 z"
       id="rect3889-1"
       style="fill:#b3b3b3;fill-rule:evenodd" />
    <rect
       width="18.875053"
       height="3.5500262"
       rx="0"
       ry="0.57757986"
       x="533.43286"
       y="311.92969"
       id="rect15146"
       style="fill:#ff0000;fill-opacity:1;stroke-width:0.186;stroke-miterlimit:4;stroke-dasharray:none" />
    <text
       x="515.48389"
       y="326.64822"
       transform="scale(1.0368206,0.96448702)"
       id="text15148"
       xml:space="preserve"
       style="font-size:3.93918562px;font-style:normal;font-variant:normal;font-weight:normal;font-stretch:normal;text-align:start;line-height:125%;letter-spacing:0px;word-spacing:0px;writing-mode:lr-tb;text-anchor:start;fill:#ffffff;fill-opacity:1;stroke:none;font-family:Verdana;-inkscape-font-specification:Verdana"><tspan
         x="515.48389"
         y="326.64822"
         id="tspan15150">Bahn</tspan></text>
    <g
       transform="matrix(1.1179335,0,0,1.1179335,292.251,176.54604)"
       id="g15171">
      <g
         transform="translate(-3.5714286,0)"
         id="g15173">
        <path
           d="m 243.7999,199.66269 c 0,-1.58266 -2.04375,-2.87632 -4.56914,-2.87632 -2.51848,0 -4.56905,1.29366 -4.56905,2.87632 0,1.58954 2.05057,2.87632 4.56905,2.87632 2.52539,0 4.56914,-1.28678 4.56914,-2.87632 z m 0,0 0,-27.0498 c 0,-1.58954 -2.04375,-2.8832 -4.56914,-2.8832 -2.51848,0 -4.56905,1.29366 -4.56905,2.8832 l 0,27.0498"
           id="path15175"
           style="fill:url(#linearGradient16800);fill-opacity:1;stroke:#000000;stroke-width:0.66059035px;stroke-linecap:butt;stroke-linejoin:round;stroke-opacity:1;stroke-dasharray:none" />
        <path
           d="m 239.23076,213.65894 -7.6518,-15.57891 c 1.29364,-2.58732 14.02375,-2.58732 15.30368,0 l -7.65188,15.57891 z"
           id="path15177"
           style="fill:url(#linearGradient16802);fill-opacity:1;stroke:#000000;stroke-width:0.66059035px;stroke-linecap:butt;stroke-linejoin:round;stroke-opacity:1;stroke-dasharray:none" />
      </g>
      <g
         transform="matrix(1,0,0,-1,-18.571429,383.38863)"
         id="g15179">
        <path
           d="m 243.7999,199.66269 c 0,-1.58266 -2.04375,-2.87632 -4.56914,-2.87632 -2.51848,0 -4.56905,1.29366 -4.56905,2.87632 0,1.58954 2.05057,2.87632 4.56905,2.87632 2.52539,0 4.56914,-1.28678 4.56914,-2.87632 z m 0,0 0,-27.0498 c 0,-1.58954 -2.04375,-2.8832 -4.56914,-2.8832 -2.51848,0 -4.56905,1.29366 -4.56905,2.8832 l 0,27.0498"
           id="path15181"
           style="fill:url(#linearGradient16804);fill-opacity:1;stroke:#000000;stroke-width:0.66059035px;stroke-linecap:butt;stroke-linejoin:round;stroke-opacity:1;stroke-dasharray:none" />
        <path
           d="m 239.23076,213.65894 -7.6518,-15.57891 c 1.29364,-2.58732 14.02375,-2.58732 15.30368,0 l -7.65188,15.57891 z"
           id="path15183"
           style="fill:url(#linearGradient16806);fill-opacity:1;stroke:#000000;stroke-width:0.66059035px;stroke-linecap:butt;stroke-linejoin:round;stroke-opacity:1;stroke-dasharray:none" />
      </g>
    </g>
    <g
       transform="matrix(0.28865161,0,0,0.28160559,481.39165,336.39739)"
       id="layer1-3-5-2">
      <g
         transform="matrix(0.0423,0,0,0.0423,319.39,59.128)"
         id="g10-5-2">
        <g
           id="g12-4-2">
          <g
             id="g14-64-0"
             style="fill:#c7c7c7">
            <path
               d="m 5903,2361 c 50,82 34,3995 -31,4149 -51,122 -1703,1495 -1789,1531 -1117,-7 -1870,-414 -1995,-629 -48,-270 -7,-4433 38,-4520 40,-76 2153,-833 2227,-851 67,-15 1493,229 1550,320 z"
               id="path16-1-5" />
          </g>
          <g
             id="g18-6-5"
             style="fill:#000000">
            <path
               d="m 5881,2374 2,-1 -2,2 c 0,-1 -1,-1 -1,-1 v -2 l 7,-3 -2,2 -5,1 5,-1 -2,2 -2,1 z m 2,-1 2,-2 2,-2 5,-2 -5,4 5,-4 h 1 l -6,3 v 1 -1 l -4,3 z m 10,-6 h -1 1 -1 l 11,-6 -10,5 v 1 z m 11,-4 -11,4 v -1 l 11,-3 z m 20,-15 c -2,-3 -4,-6 -7,-9 -2,-3 -5,-5 -8,-7 -5,-4 -12,-8 -20,-12 -7,-4 -15,-7 -24,-11 -9,-4 -19,-7 -30,-11 -21,-8 -47,-16 -75,-24 -29,-8 -61,-16 -95,-25 -136,-34 -313,-72 -494,-106 -181,-35 -364,-66 -511,-90 -73,-11 -138,-21 -189,-27 -25,-3 -47,-6 -65,-8 -9,-1 -17,-1 -24,-2 -4,0 -7,0 -10,-1 h -9 c -3,0 -5,0 -7,1 h -4 c -2,0 -3,0 -4,1 -2,0 -4,1 -7,2 -2,0 -5,1 -8,2 -3,1 -7,2 -11,3 -4,2 -8,3 -13,5 -10,3 -22,7 -35,12 -13,4 -28,9 -44,15 -33,11 -71,25 -115,40 -43,15 -91,32 -144,51 -209,75 -481,173 -753,274 -271,101 -542,203 -747,285 -51,21 -98,40 -140,57 -43,18 -80,34 -111,48 -16,7 -30,14 -42,20 -13,6 -24,12 -33,17 -5,2 -9,5 -13,7 -4,3 -8,5 -10,7 -4,3 -7,5 -9,7 -5,4 -7,8 -9,11 -1,2 -2,5 -4,9 0,3 -1,6 -1,9 -1,3 -1,7 -2,11 -1,4 -1,8 -2,13 0,9 -1,20 -3,32 0,13 -1,27 -2,42 -2,31 -4,69 -6,111 -2,43 -4,91 -5,144 -7,213 -14,504 -19,835 -11,662 -19,1482 -19,2144 0,308 2,583 5,791 1,52 2,100 3,143 1,43 3,82 4,115 1,34 3,62 4,85 1,12 2,22 3,30 1,5 1,9 1,13 1,3 2,7 2,10 l 1,4 2,4 c 9,15 20,30 33,46 14,16 30,32 48,49 35,32 80,66 135,101 107,70 249,142 423,207 173,65 377,124 608,167 231,43 489,70 769,72 h 6 l 5,-2 8,-4 c 2,-2 5,-3 8,-6 3,-2 6,-4 10,-6 l 12,-9 c 9,-6 19,-13 30,-22 11,-8 23,-17 37,-28 27,-20 58,-45 93,-73 35,-28 74,-59 116,-93 169,-136 385,-315 600,-497 215,-181 430,-366 593,-512 41,-37 79,-71 113,-103 34,-31 64,-59 89,-84 13,-13 24,-24 34,-35 11,-11 20,-20 28,-29 8,-9 14,-17 19,-23 3,-4 5,-8 7,-10 2,-4 4,-8 6,-11 0,-2 1,-5 2,-8 1,-3 2,-5 3,-9 1,-6 2,-13 3,-22 2,-8 3,-17 4,-28 1,-11 2,-22 3,-35 2,-25 4,-55 7,-89 1,-34 3,-72 5,-113 8,-166 14,-391 19,-648 10,-516 16,-1164 16,-1743 0,-389 -3,-747 -8,-1012 -1,-66 -2,-127 -4,-181 -1,-53 -3,-100 -5,-139 -1,-20 -2,-38 -3,-53 -1,-16 -2,-30 -3,-41 -1,-6 -1,-11 -2,-16 -1,-5 -1,-10 -2,-13 -1,-4 -1,-8 -2,-11 -1,-2 -1,-4 -2,-5 -1,-3 -2,-5 -3,-6 z m -37,21 12,-12 -12,12 z m -6,9 c 1,3 1,7 2,11 0,4 1,9 1,15 1,11 3,24 4,39 0,15 1,33 2,52 2,39 4,86 6,139 1,53 2,114 4,180 5,264 7,622 7,1011 0,578 -5,1227 -15,1742 -6,257 -12,481 -19,646 -2,42 -4,79 -6,113 -2,33 -4,63 -6,88 -1,12 -2,24 -4,34 0,10 -2,18 -3,26 -1,7 -2,14 -3,18 0,3 -1,4 -1,6 0,1 -1,2 -1,2 0,1 -1,2 -2,4 -1,1 -3,4 -4,6 -5,6 -10,13 -17,21 -7,7 -16,17 -26,27 l -34,34 c -25,24 -54,52 -88,83 -33,31 -71,66 -112,102 -163,146 -377,330 -592,512 -215,181 -431,360 -598,495 -42,34 -81,65 -116,93 -35,28 -66,52 -93,73 -13,10 -26,20 -37,28 -10,8 -20,15 -28,21 -4,3 -8,6 -12,8 -3,2 -6,4 -8,6 -2,1 -4,2 -5,3 -276,-2 -528,-29 -755,-71 -228,-42 -429,-100 -600,-164 -169,-64 -308,-134 -413,-202 -51,-33 -94,-66 -128,-97 -17,-15 -31,-30 -43,-44 -10,-12 -19,-23 -26,-34 v -4 c -1,-3 -1,-7 -1,-11 -1,-8 -2,-18 -3,-28 -2,-23 -3,-51 -5,-84 -1,-33 -2,-71 -3,-115 -1,-42 -2,-90 -3,-142 -3,-208 -5,-482 -5,-790 0,-662 7,-1481 18,-2143 6,-330 12,-622 19,-834 2,-53 4,-101 6,-144 2,-42 3,-79 5,-109 1,-16 2,-30 3,-42 1,-12 2,-22 3,-31 0,-4 1,-8 1,-11 1,-4 1,-6 2,-9 v -2 c 0,-1 1,-1 2,-2 2,-1 4,-3 7,-5 4,-1 7,-4 11,-6 9,-5 19,-10 31,-16 12,-6 26,-12 41,-19 31,-14 67,-29 109,-47 42,-17 89,-37 140,-57 205,-82 475,-184 746,-284 271,-101 543,-200 752,-274 52,-19 101,-36 144,-51 43,-16 82,-29 114,-40 17,-6 31,-11 44,-16 13,-4 25,-8 35,-11 4,-2 9,-3 13,-4 4,-2 7,-3 10,-4 3,-1 5,-1 8,-2 l 3,-1 -2,-8 1,8 h 1 4 7 c 2,0 5,0 8,1 7,0 14,1 23,2 17,1 39,4 64,7 50,6 114,16 187,27 147,23 329,55 509,89 180,35 357,72 492,106 34,9 65,17 92,25 28,8 53,15 73,23 10,3 20,7 28,10 7,3 15,6 20,9 5,3 10,5 13,8 0,0 1,0 1,1 0,1 1,3 1,4 z M 4075,8017 c 1,0 1,-1 2,-1 h 6 v 14 l -8,-13 8,13 v 11 l -10,-23 c 0,0 1,-1 2,-1 z M 2110,7400 c 1,1 1,3 2,4 1,1 1,3 1,4 l -25,4 21,-11 1,-1 -1,1 1,-1 h 2 -2 z m 39,-4498 v 3 c -1,0 -1,1 -2,1 l -5,-6 -17,-4 17,4 -2,-1 4,2 5,1 z m -7,-2 2,1 -2,-1 z m -16,-8 14,7 -14,-7 z m 14,7 -10,-11 10,11 z m 2217,-841 -2,-17 2,17 z m -4,-17 4,17 v 1 l -4,-18 z"
               id="path20-8-2" />
          </g>
          <g
             id="g22-8-9"
             style="fill:#ffffff;fill-opacity:0.54118;stroke:#ffffff;stroke-opacity:0.54118">
            <path
               d="m 5822,2442 -52,22 -52,23 -52,23 -53,25 -53,25 -53,26 -53,26 -54,27 -54,27 -54,28 -55,28 -54,29 -55,29 -55,29 -111,60 -112,60 -112,60 -113,61 -114,60 -114,60 -114,59 -57,29 -57,29 -58,28 -57,28 -27,-6 -28,-7 -56,-13 -58,-14 -59,-13 -60,-14 -61,-14 -61,-14 -63,-14 -62,-14 -63,-15 -127,-28 -127,-28 -64,-14 -63,-14 -62,-13 -62,-13 -61,-13 -60,-13 -60,-13 -58,-12 -57,-12 -28,-5 -28,-6 -27,-5 -27,-6 -27,-5 -26,-5 -26,-5 -25,-6 -25,-4 -24,-5 -24,-5 -24,-4 -23,-4 -22,-5 -22,-4 -21,-3 -21,-4 -20,-4 52,16 52,16 53,16 54,15 55,16 55,15 57,16 56,15 57,16 58,15 116,31 117,30 118,31 118,31 117,30 116,31 58,15 57,16 57,15 56,16 55,15 55,16 54,15 53,16 52,16 52,16 1,60 2,61 1,61 1,63 1,64 2,64 1,65 1,66 1,67 1,67 1,68 v 69 l 1,69 1,70 1,70 v 71 l 1,71 v 72 l 1,72 1,73 1,146 1,147 v 149 l 1,149 2,299 1,300 1,149 1,148 1,147 1,146 1,73 v 72 l 1,72 1,71 v 71 l 1,71 1,69 1,70 v 68 l 1,68 1,67 1,67 1,66 1,65 1,65 2,63 1,63 1,62 2,61 1,60 1,-61 1,-61 v -63 l 1,-63 1,-64 1,-65 1,-66 1,-67 1,-67 1,-68 1,-69 2,-69 1,-70 1,-71 1,-71 1,-72 1,-72 2,-73 1,-73 1,-73 3,-148 3,-149 2,-151 3,-151 6,-303 5,-303 3,-151 3,-150 2,-149 3,-149 1,-73 2,-73 1,-73 1,-72 1,-71 1,-72 1,-70 2,-70 1,-70 1,-68 1,-68 1,-68 1,-66 1,-66 1,-65 1,-64 1,-64 v -62 l 1,-62 1,-60 110,-59 109,-59 109,-57 109,-58 108,-57 107,-58 107,-57 107,-58 105,-58 105,-58 104,-60 103,-60 51,-30 50,-31 51,-31 50,-31 50,-31 50,-32 49,-32 50,-32 z"
               id="path24-1-0" />
          </g>
          <g
             id="g28-1-8"
             style="fill:none">
            <path
               d="m 5822,2442 c -549,232 -1156,606 -1768,901 -580,-138 -1417,-322 -1839,-396 543,169 1257,327 1800,496 32,1271 16,3196 48,4467 16,-1282 59,-3238 75,-4519 586,-317 1161,-601 1684,-949 z"
               id="path30-7-3" />
          </g>
          <g
             id="g32-7-8"
             style="fill:#000000;fill-opacity:0.16078001;stroke:#ffffff;stroke-opacity:0.16078001">
            <path
               d="m 2420,6628 10,14 10,13 11,13 12,13 12,12 12,12 14,12 13,12 14,12 15,11 15,11 16,11 15,11 17,10 16,10 17,11 18,9 18,10 18,9 18,8 19,9 19,8 19,8 19,8 40,15 40,14 41,12 41,11 42,10 41,9 42,8 41,6 41,6 41,3 21,2 20,1 19,1 h 20 20 19 l 19,-1 19,-1 18,-1 19,-1 17,-2 18,-3 17,-2 17,-3 17,-4 16,-4 15,-4 15,-4 15,-5 15,-5 -2,-1 h -1 l -5,-2 -6,-1 -7,-2 -8,-2 -10,-3 -10,-3 -12,-3 -13,-4 -14,-3 -15,-4 -16,-5 -16,-4 -18,-5 -18,-5 -19,-5 -20,-6 -20,-5 -21,-6 -22,-6 -22,-6 -22,-6 -23,-7 -24,-6 -48,-13 -49,-14 -50,-14 -50,-13 -50,-15 -50,-13 -49,-14 -49,-13 -23,-7 -24,-6 -23,-7 -22,-6 -22,-6 -21,-6 -21,-6 -20,-5 -19,-6 -19,-5 -18,-5 -17,-5 -16,-4 -15,-5 -15,-4 -13,-4 -12,-3 -12,-3 -10,-3 -9,-3 -7,-2 -7,-2 -5,-2 h -2 l -2,-1 z"
               id="path34-1-0" />
          </g>
          <g
             id="g38-5-0"
             style="fill:none">
            <path
               d="m 2420,6628 c 201,289 833,431 1133,315 -53,-14 -1066,-293 -1133,-315 z"
               id="path40-7-9" />
          </g>
          <g
             id="g42-6-1"
             style="fill:#ffffff;fill-opacity:0.38824002;stroke:#ffffff;stroke-opacity:0.38824002">
            <path
               d="m 3454,6093 -936,-361 -9,4 -8,4 -8,4 -6,5 -6,6 -6,6 -5,7 -5,6 -4,7 -4,7 -3,7 -3,8 -3,8 -2,7 -3,15 -2,15 -2,14 v 6 7 5 6 5 4 4 l 1,4 v 2 2 1 1 l 146,51 1,1 1,1 1,1 1,2 2,2 1,3 3,3 2,3 3,4 3,4 3,4 4,5 4,4 4,6 5,4 10,12 10,11 13,12 13,12 14,13 15,12 17,13 17,12 19,12 19,11 21,11 22,10 11,4 11,5 12,4 12,4 13,3 12,3 13,3 13,3 13,2 13,1 14,2 14,1 h 14 15 15 l 15,-1 15,-2 15,-2 16,-2 16,-3 16,-4 16,-4 17,-5 17,-6 h 1 l 2,1 h 3 l 6,1 6,1 7,1 8,1 9,1 10,1 11,1 12,1 12,1 h 12 l 13,1 h 26 l 14,-1 13,-1 14,-1 13,-2 13,-2 12,-3 12,-3 12,-3 10,-5 11,-5 9,-6 8,-6 8,-8 3,-4 3,-4 3,-4 2,-4 2,-5 2,-5 z"
               id="path44-7-9" />
          </g>
          <g
             id="g48-57-2"
             style="fill:none">
            <path
               d="m 3454,6093 -936,-361 c -97,34 -78,177 -78,177 l 146,51 c 0,0 204,319 566,194 0,0 269,48 302,-61 z"
               id="path50-0-5" />
          </g>
          <g
             id="g52-5-4"
             style="fill:#606060">
            <path
               d="m 3446,5971 c -311,-81 -622,-161 -933,-242 -12,44 -13,107 6,140 47,23 142,41 189,64 136,131 255,142 472,124 84,17 168,31 251,48 26,-51 33,-72 15,-134 z"
               id="path54-7-4" />
          </g>
          <g
             id="g56-7-9"
             style="fill:none">
            <path
               d="m 3446,5971 c -311,-81 -622,-161 -933,-242 -12,44 -13,107 6,140 47,23 142,41 189,64 136,131 255,142 472,124 84,17 168,31 251,48 26,-51 33,-72 15,-134 z"
               id="path58-8-9" />
          </g>
          <g
             id="g60-5-3"
             style="fill:#ffffff;fill-opacity:0.4;stroke:#ffffff;stroke-opacity:0.4">
            <path
               d="m 5856,2414 -1813,1017 7,4549 1775,-1494 31,-4072 z"
               id="path62-2-6" />
          </g>
          <g
             id="g66-2-5"
             style="fill:none">
            <path
               d="m 5856,2414 -1813,1017 7,4549 1775,-1494 31,-4072 z"
               id="path68-9-0" />
          </g>
          <g
             id="g70-9-2"
             style="fill:#000000;fill-opacity:0.16078001;stroke:#ffffff;stroke-opacity:0.16078001">
            <path
               d="m 2525,6916 10,13 11,12 10,13 11,11 11,12 11,11 12,11 12,10 12,10 12,10 13,10 12,9 13,9 13,8 27,17 28,15 28,14 28,13 29,11 29,11 30,9 30,8 29,8 30,6 30,5 30,4 30,3 30,2 29,2 h 29 l 29,-1 27,-2 28,-2 27,-3 26,-5 25,-5 24,-6 24,-6 22,-8 -2,-1 h -4 l -4,-2 -5,-1 -6,-2 -8,-2 -8,-2 -9,-2 -10,-3 -10,-3 -11,-3 -12,-3 -13,-4 -13,-3 -14,-4 -15,-4 -15,-4 -15,-5 -16,-4 -16,-5 -17,-4 -18,-5 -35,-10 -36,-10 -38,-10 -38,-10 -38,-11 -76,-21 -37,-10 -37,-11 -36,-10 -17,-4 -17,-5 -17,-5 -16,-4 -16,-5 -15,-4 -15,-4 -14,-4 -14,-4 -13,-4 -12,-3 -11,-3 -12,-3 -10,-3 -9,-3 -8,-2 -8,-3 -7,-1 -6,-2 -5,-2 -4,-1 -3,-1 z"
               id="path72-9-9" />
          </g>
          <g
             id="g76-2-3"
             style="fill:none">
            <path
               d="m 2525,6916 c 209,276 627,323 861,239 -39,-10 -810,-222 -861,-239 z"
               id="path78-7-5" />
          </g>
          <g
             id="g80-6-1"
             style="fill:#000000;fill-opacity:0.16078001;stroke:#ffffff;stroke-opacity:0.16078001">
            <path
               d="m 2680,7199 12,15 12,14 13,14 14,12 14,13 14,11 15,11 16,11 15,9 17,9 16,9 17,7 18,7 17,7 18,5 18,5 18,5 19,3 18,4 19,2 18,2 19,1 h 19 19 l 18,-1 19,-2 18,-2 19,-3 18,-4 18,-4 18,-5 17,-6 h -1 l -2,-1 h -3 l -4,-1 -3,-1 -5,-2 -5,-1 -6,-2 -6,-1 -6,-2 -7,-2 -8,-2 -8,-2 -8,-3 -9,-2 -9,-2 -19,-6 -20,-5 -22,-6 -22,-6 -23,-6 -23,-7 -48,-13 -48,-13 -23,-7 -23,-6 -23,-6 -21,-6 -21,-6 -19,-6 -9,-2 -9,-3 -9,-2 -8,-2 -8,-2 -7,-2 -7,-2 -6,-2 -6,-2 -5,-2 -5,-1 -5,-1 -3,-1 -3,-1 -3,-1 h -2 z"
               id="path82-0-7" />
          </g>
          <g
             id="g86-0-3"
             style="fill:none">
            <path
               d="m 2680,7199 c 121,163 355,213 540,149 -25,-6 -507,-139 -540,-149 z"
               id="path88-3-1" />
          </g>
          <g
             id="g90-5-4"
             style="fill:#fcfcfc;fill-opacity:0.43921999;stroke:#ffffff;stroke-opacity:0.43921999">
            <path
               d="m 2356,3259 -92,13 -17,2173 1425,399 35,-116 -1369,-365 18,-2104 z"
               id="path92-9-6" />
          </g>
          <g
             id="g96-7-4"
             style="fill:none">
            <path
               d="m 2356,3259 -92,13 -17,2173 1425,399 35,-116 -1369,-365 18,-2104 z"
               id="path98-7-2" />
          </g>
          <g
             id="g100-1-2"
             style="fill:#000000;fill-opacity:0.23136998;stroke:#ffffff;stroke-opacity:0.23136998">
            <path
               d="m 3700,4065 -2,61 -1340,-386 1342,325 z"
               id="path102-64-6" />
          </g>
          <g
             id="g106-1-1"
             style="fill:#000000;fill-opacity:0.23136998;stroke:#ffffff;stroke-opacity:0.23136998">
            <path
               d="m 3720,4507 -3,61 -1339,-386 1342,325 z"
               id="path108-3-2" />
          </g>
          <g
             id="g112-9-8"
             style="fill:#000000;fill-opacity:0.23136998;stroke:#ffffff;stroke-opacity:0.23136998">
            <path
               d="m 3700,4916 -2,61 -1340,-386 1342,325 z"
               id="path114-09-9" />
          </g>
          <g
             id="g118-8-8"
             style="fill:#000000;fill-opacity:0.23136998;stroke:#ffffff;stroke-opacity:0.23136998">
            <path
               d="m 3700,5318 -2,61 -1340,-387 1342,326 z"
               id="path120-3-8" />
          </g>
          <g
             id="g124-5-6"
             style="fill:#9e9e9e">
            <path
               d="m 2361,3309 1332,333 -11,2197 h 11 11 l 11,-2205 v -9 l -8,-2 -1341,-335 -2,11 -3,10 z m 1340,335 -8,-2 v -8 h 11 l -3,10 z"
               id="path126-3-8" />
          </g>
        </g>
      </g>
    </g>
    <path
       d="m 619.2176,408.96724 v 27.45316 h 0.12498 c -0.0806,0.22011 -0.12498,0.42909 -0.12498,0.65574 0,3.30846 8.80729,5.98708 19.68468,5.98708 10.87739,0 19.68469,-2.67884 19.68469,-5.98708 0,-0.22697 -0.0442,-0.43533 -0.12499,-0.65574 h 0.12499 v -27.45316 h -39.36842 z"
       id="path5488-8"
       style="fill:#6993c2;fill-opacity:1" />
    <path
       d="m 303.29832,521.77954 a 16.667517,5.5558391 0 1 1 -33.33504,0 16.667517,5.5558391 0 1 1 33.33504,0 z"
       transform="matrix(1.1816478,0,0,1.0782038,300.21055,-153.83789)"
       id="path5460-3"
       style="fill:#497bb3;fill-opacity:1" />
    <path
       d="m 619.19378,428.66634 c 0.14732,3.26978 8.93064,5.90169 19.71612,5.90169 10.75476,0 19.4892,-2.61626 19.68469,-5.87323 -3.45111,2.6784 -10.95764,4.53316 -19.68469,4.53316 -8.74491,0 -16.27453,-1.87433 -19.71612,-4.56162 z"
       id="path6026-3"
       style="fill:#3b5d8b" />
    <path
       d="m 619.19378,408.82384 c 0.14732,3.26979 8.93064,5.9017 19.71612,5.9017 10.75476,0 19.4892,-2.61627 19.68469,-5.87324 -0.21568,0.16741 -0.44072,0.32396 -0.68739,0.48467 -0.009,0.0107 -0.0217,0.0179 -0.0312,0.0285 -2.29184,2.53392 -9.90211,4.39063 -18.96609,4.39063 -9.12088,0 -16.78336,-1.88919 -19.0287,-4.44756 -0.0249,-0.0163 -0.038,-0.0407 -0.0625,-0.057 -0.2187,-0.14569 -0.43152,-0.27664 -0.62491,-0.42766 z"
       id="path6030-3"
       style="fill:#ffffff" />
    <path
       d="m 619.19378,419.06772 c 0.14732,3.26979 8.93064,5.9017 19.71612,5.9017 10.75476,0 19.4892,-2.61627 19.68469,-5.87323 -3.45111,2.6784 -10.95764,4.53316 -19.68469,4.53316 -8.74491,0 -16.27453,-1.87434 -19.71612,-4.56163 z"
       id="path6022-8"
       style="fill:#3b5d8b" />
    <path
       d="m 619.19378,419.06772 c 0.14732,3.26979 8.93064,5.9017 19.71612,5.9017 10.75476,0 19.4892,-2.61627 19.68469,-5.87323 -0.0497,0.0385 -0.10541,0.0765 -0.15623,0.11404 -1.24198,2.94389 -9.50923,5.21732 -19.52848,5.21732 -10.11141,0 -18.46511,-2.29103 -19.59111,-5.27446 -0.0401,-0.0289 -0.0863,-0.0554 -0.12499,-0.0855 z"
       id="path6043-0"
       style="fill:#ffffff" />
    <path
       d="m 619.19378,428.66634 c 0.14732,3.26978 8.93064,5.90169 19.71612,5.90169 10.75476,0 19.4892,-2.61626 19.68469,-5.87323 -0.0497,0.0385 -0.10541,0.0765 -0.15623,0.11404 -1.24198,2.9439 -9.50923,5.21732 -19.52848,5.21732 -10.11141,0 -18.46511,-2.29102 -19.59111,-5.27446 -0.0401,-0.0289 -0.0863,-0.0554 -0.12499,-0.0855 z"
       id="path6054-4"
       style="fill:#ffffff" />
    <path
       d="m 619.31284,438.56043 c 1.12586,2.98343 9.47971,5.27446 19.59111,5.27446 10.01925,0 18.28652,-2.27343 19.52848,-5.21732 -3.51587,2.61648 -10.92715,4.4191 -19.52848,4.4191 -8.64658,0 -16.09786,-1.83721 -19.59111,-4.47602 z"
       id="path6060-7"
       style="fill:#3b5d8b" />
  </g>
</svg>
