<svg xmlns="http://www.w3.org/2000/svg" viewBox="0 0 620 360" font-family="sans-serif" font-size="13"><rect width="620" height="360" fill="#ffffff"/><text x="335" y="24" text-anchor="middle" font-size="16" font-weight="bold">Fahrräder und Verkehrsunfälle in sechs europäischen Städten</text><text x="335" y="44" text-anchor="middle" fill="#555555">fiktive Daten · in Klammern: Einwohner</text><line x1="90.0" y1="60" x2="90.0" y2="300" stroke="#dddddd"/><text x="90.0" y="318" text-anchor="middle">0</text><line x1="160.0" y1="60" x2="160.0" y2="300" stroke="#dddddd"/><text x="160.0" y="318" text-anchor="middle">100</text><line x1="230.0" y1="60" x2="230.0" y2="300" stroke="#dddddd"/><text x="230.0" y="318" text-anchor="middle">200</text><line x1="300.0" y1="60" x2="300.0" y2="300" stroke="#dddddd"/><text x="300.0" y="318" text-anchor="middle">300</text><line x1="370.0" y1="60" x2="370.0" y2="300" stroke="#dddddd"/><text x="370.0" y="318" text-anchor="middle">400</text><line x1="440.0" y1="60" x2="440.0" y2="300" stroke="#dddddd"/><text x="440.0" y="318" text-anchor="middle">500</text><line x1="510.0" y1="60" x2="510.0" y2="300" stroke="#dddddd"/><text x="510.0" y="318" text-anchor="middle">600</text><line x1="580.0" y1="60" x2="580.0" y2="300" stroke="#dddddd"/><text x="580.0" y="318" text-anchor="middle">700</text><line x1="90" y1="300.0" x2="580" y2="300.0" stroke="#dddddd"/><text x="82" y="304.0" text-anchor="end">0</text><line x1="90" y1="252.0" x2="580" y2="252.0" stroke="#dddddd"/><text x="82" y="256.0" text-anchor="end">500</text><line x1="90" y1="204.0" x2="580" y2="204.0" stroke="#dddddd"/><text x="82" y="208.0" text-anchor="end">1.000</text><line x1="90" y1="156.0" x2="580" y2="156.0" stroke="#dddddd"/><text x="82" y="160.0" text-anchor="end">1.500</text><line x1="90" y1="108.0" x2="580" y2="108.0" stroke="#dddddd"/><text x="82" y="112.0" text-anchor="end">2.000</text><line x1="90" y1="60.0" x2="580" y2="60.0" stroke="#dddddd"/><text x="82" y="64.0" text-anchor="end">2.500</text><line x1="90" y1="300" x2="580" y2="300" stroke="#000000" stroke-width="1.5"/><line x1="90" y1="60" x2="90" y2="300" stroke="#000000" stroke-width="1.5"/><text x="335.0" y="342" text-anchor="middle">Fahrräder (in Tausend)</text><text x="22" y="180.0" text-anchor="middle" transform="rotate(-90 22 180.0)">Verkehrsunfälle pro Jahr</text><circle cx="132.0" cy="270.24" r="6" fill="#23373b"/><text x="142.0" y="286.24">Stadt A (0,3 Mio.)</text><circle cx="181.0" cy="248.16" r="6" fill="#23373b"/><text x="191.0" y="264.15999999999997">Stadt B (0,6 Mio.)</text><circle cx="237.0" cy="213.60000000000002" r="6" fill="#23373b"/><text x="247.0" y="229.60000000000002">Stadt C (1,1 Mio.)</text><circle cx="321.0" cy="186.72" r="6" fill="#23373b"/><text x="331.0" y="202.72">Stadt D (1,8 Mio.)</text><circle cx="419.0" cy="134.88000000000002" r="6" fill="#23373b"/><text x="429.0" y="150.88000000000002">Stadt E (2,6 Mio.)</text><circle cx="510.0" cy="84.0" r="6" fill="#23373b"/><text x="500.0" y="102.0" text-anchor="end">Stadt F (3,6 Mio.)</text></svg>
